<svg width="16" height="64" viewBox="0 0 16 64" xmlns="http://www.w3.org/2000/svg">

        <g transform="translate(0, 0)">
            <polygon points="7,6 8,3 9,6" fill="red"/>
            <rect x="3" y="6" width="10" height="8" rx="3" fill="#FFF"/>
            <!-- Eyes -->
            <rect x="5" y="8" width="2" height="2" fill="#000"/>
            <rect x="9" y="8" width="2" height="2" fill="#000"/>
            <!-- Tail wag -->
            <rect x="13" y="9" width="3" height="2" fill="#FFF" transform="rotate(-10 13 10)"/>
        </g>
        
        <g transform="translate(0, 17)">
            <polygon points="7,6 8,3 9,6" fill="red"/>
            <rect x="3" y="6" width="10" height="8" rx="3" fill="#FFF"/>
            <!-- Eyes -->
            <rect x="5" y="8" width="2" height="2" fill="#000"/>
            <rect x="9" y="8" width="2" height="2" fill="#000"/>
            <!-- Tail wag -->
            <rect x="13" y="9" width="3" height="2" fill="#FFF" transform="rotate(10 13 10)"/>
        </g>
        
        <g transform="translate(0, 32)">
            <polygon points="7,6 8,3 9,6" fill="red"/>
            <rect x="3" y="6" width="10" height="8" rx="3" fill="#FFF"/>
            <!-- Eyes -->
            <rect x="5" y="8" width="2" height="2" fill="#000"/>
            <rect x="9" y="8" width="2" height="2" fill="#000"/>
            <!-- Tail wag -->
            <rect x="13" y="9" width="3" height="2" fill="#FFF" transform="rotate(-10 13 10)"/>
        </g>
        
        <g transform="translate(0, 49)">
            <polygon points="7,6 8,3 9,6" fill="red"/>
            <rect x="3" y="6" width="10" height="8" rx="3" fill="#FFF"/>
            <!-- Eyes -->
            <rect x="5" y="8" width="2" height="2" fill="#000"/>
            <rect x="9" y="8" width="2" height="2" fill="#000"/>
            <!-- Tail wag -->
            <rect x="13" y="9" width="3" height="2" fill="#FFF" transform="rotate(10 13 10)"/>
        </g>
        
</svg>