<svg width="16" height="64" viewBox="0 0 16 64" xmlns="http://www.w3.org/2000/svg">

        <g transform="translate(0, 0)">
            <polygon points="3,6 5,2 7,6" fill="#D2B48C"/><polygon points="9,6 11,2 13,6" fill="#D2B48C"/>
            <rect x="3" y="6" width="10" height="8" rx="3" fill="#DAA520"/>
            <!-- Eyes -->
            <rect x="5" y="8" width="2" height="2" fill="#000"/>
            <rect x="9" y="8" width="2" height="2" fill="#000"/>
            <!-- Tail wag -->
            <rect x="13" y="9" width="3" height="2" fill="#8B4513" transform="rotate(-10 13 10)"/>
        </g>
        
        <g transform="translate(0, 17)">
            <polygon points="3,6 5,2 7,6" fill="#D2B48C"/><polygon points="9,6 11,2 13,6" fill="#D2B48C"/>
            <rect x="3" y="6" width="10" height="8" rx="3" fill="#DAA520"/>
            <!-- Eyes -->
            <rect x="5" y="8" width="2" height="2" fill="#000"/>
            <rect x="9" y="8" width="2" height="2" fill="#000"/>
            <!-- Tail wag -->
            <rect x="13" y="9" width="3" height="2" fill="#8B4513" transform="rotate(10 13 10)"/>
        </g>
        
        <g transform="translate(0, 32)">
            <polygon points="3,6 5,2 7,6" fill="#D2B48C"/><polygon points="9,6 11,2 13,6" fill="#D2B48C"/>
            <rect x="3" y="6" width="10" height="8" rx="3" fill="#DAA520"/>
            <!-- Eyes -->
            <rect x="5" y="8" width="2" height="2" fill="#000"/>
            <rect x="9" y="8" width="2" height="2" fill="#000"/>
            <!-- Tail wag -->
            <rect x="13" y="9" width="3" height="2" fill="#8B4513" transform="rotate(-10 13 10)"/>
        </g>
        
        <g transform="translate(0, 49)">
            <polygon points="3,6 5,2 7,6" fill="#D2B48C"/><polygon points="9,6 11,2 13,6" fill="#D2B48C"/>
            <rect x="3" y="6" width="10" height="8" rx="3" fill="#DAA520"/>
            <!-- Eyes -->
            <rect x="5" y="8" width="2" height="2" fill="#000"/>
            <rect x="9" y="8" width="2" height="2" fill="#000"/>
            <!-- Tail wag -->
            <rect x="13" y="9" width="3" height="2" fill="#8B4513" transform="rotate(10 13 10)"/>
        </g>
        
</svg>